<mxfile host="app.diagrams.net" modified="2020-10-08T19:37:46.081Z" agent="5.0 (Windows NT 10.0; Win64; x64) AppleWebKit/537.36 (KHTML, like Gecko) Chrome/86.0.4240.75 Safari/537.36" etag="3cncZCG1x3pPTflAOy6y" version="13.7.9" type="github">
  <diagram id="iRrW8ALS4z6CEqvChroj" name="Page-1">
    <mxGraphModel dx="1637" dy="780" grid="1" gridSize="10" guides="1" tooltips="1" connect="1" arrows="1" fold="1" page="1" pageScale="1" pageWidth="827" pageHeight="1169" math="0" shadow="0">
      <root>
        <mxCell id="0" />
        <mxCell id="1" parent="0" />
        <mxCell id="5g7xxwylZ5tROe-7sJ9V-5" value="&lt;p style=&quot;margin: 0px ; margin-top: 4px ; text-align: center&quot;&gt;&lt;i&gt;&amp;lt;&amp;lt;Interface&amp;gt;&amp;gt;&lt;/i&gt;&lt;br&gt;&lt;b&gt;Movable&lt;/b&gt;&lt;/p&gt;&lt;hr size=&quot;1&quot;&gt;&lt;p style=&quot;margin: 0px ; margin-left: 4px&quot;&gt;&lt;span&gt;+ moveUp(int): void&lt;/span&gt;&lt;br&gt;&lt;/p&gt;&lt;p style=&quot;margin: 0px ; margin-left: 4px&quot;&gt;+ moveDown(int): void&lt;/p&gt;&lt;p style=&quot;margin: 0px ; margin-left: 4px&quot;&gt;+ moveLeft(int): void&lt;br&gt;&lt;/p&gt;&lt;p style=&quot;margin: 0px ; margin-left: 4px&quot;&gt;+ moveRight(int): void&lt;br&gt;&lt;/p&gt;" style="verticalAlign=top;align=left;overflow=fill;fontSize=12;fontFamily=Helvetica;html=1;" vertex="1" parent="1">
          <mxGeometry x="319" y="320" width="190" height="120" as="geometry" />
        </mxCell>
        <mxCell id="5g7xxwylZ5tROe-7sJ9V-10" style="edgeStyle=orthogonalEdgeStyle;rounded=0;orthogonalLoop=1;jettySize=auto;html=1;entryX=0.5;entryY=1;entryDx=0;entryDy=0;endArrow=blockThin;endFill=0;" edge="1" parent="1" source="5g7xxwylZ5tROe-7sJ9V-6" target="5g7xxwylZ5tROe-7sJ9V-5">
          <mxGeometry relative="1" as="geometry" />
        </mxCell>
        <mxCell id="5g7xxwylZ5tROe-7sJ9V-6" value="Classname" style="swimlane;fontStyle=1;align=center;verticalAlign=top;childLayout=stackLayout;horizontal=1;startSize=26;horizontalStack=0;resizeParent=1;resizeParentMax=0;resizeLast=0;collapsible=1;marginBottom=0;" vertex="1" parent="1">
          <mxGeometry x="204" y="500" width="420" height="300" as="geometry" />
        </mxCell>
        <mxCell id="5g7xxwylZ5tROe-7sJ9V-7" value="+ lenght: int&#xa;+ width: int&#xa;+ x: int&#xa;+ y: int" style="text;strokeColor=none;fillColor=none;align=left;verticalAlign=top;spacingLeft=4;spacingRight=4;overflow=hidden;rotatable=0;points=[[0,0.5],[1,0.5]];portConstraint=eastwest;" vertex="1" parent="5g7xxwylZ5tROe-7sJ9V-6">
          <mxGeometry y="26" width="420" height="94" as="geometry" />
        </mxCell>
        <mxCell id="5g7xxwylZ5tROe-7sJ9V-8" value="" style="line;strokeWidth=1;fillColor=none;align=left;verticalAlign=middle;spacingTop=-1;spacingLeft=3;spacingRight=3;rotatable=0;labelPosition=right;points=[];portConstraint=eastwest;" vertex="1" parent="5g7xxwylZ5tROe-7sJ9V-6">
          <mxGeometry y="120" width="420" height="8" as="geometry" />
        </mxCell>
        <mxCell id="5g7xxwylZ5tROe-7sJ9V-9" value="+ getWidth(): int&#xa;+ setWidth(int width): void&#xa;+ getLength(): int&#xa;+ setLength(int length): void&#xa;+ getArea(): int&#xa;+ getPerimeter(): int&#xa;+toString():String&#xa;+ moveUp(int): void&#xa;+ moveDown(int): void&#xa;+ moveLeft(int): void&#xa;+ moveRight(int): void" style="text;strokeColor=none;fillColor=none;align=left;verticalAlign=top;spacingLeft=4;spacingRight=4;overflow=hidden;rotatable=0;points=[[0,0.5],[1,0.5]];portConstraint=eastwest;fontStyle=0" vertex="1" parent="5g7xxwylZ5tROe-7sJ9V-6">
          <mxGeometry y="128" width="420" height="172" as="geometry" />
        </mxCell>
      </root>
    </mxGraphModel>
  </diagram>
</mxfile>
